<svg xmlns="http://www.w3.org/2000/svg" viewBox="0 0 381.36 381.36"><title>Resurs 7</title><g id="Lager_2" data-name="Lager 2"><g id="Lager_1-2" data-name="Lager 1"><path d="M190.68,381.36C85.54,381.36,0,295.82,0,190.68S85.54,0,190.68,0,381.36,85.54,381.36,190.68,295.82,381.36,190.68,381.36Zm0-377C88,4.4,4.4,88,4.4,190.68S88,377,190.68,377,377,293.4,377,190.68,293.4,4.4,190.68,4.4Z"/><path d="M54.21,243.5,31.8,250.91c-.11,0-.18,0-.21-.11L26.37,235a.15.15,0,0,1,.1-.22l3.23-1.07c.11,0,.18,0,.22.12l3.94,11.93c0,.09.09.11.18.08L39.67,244c.09,0,.12-.08.09-.17l-3.42-10.32c0-.11,0-.18.11-.21l3.21-1.06c.12,0,.2,0,.23.09l3.41,10.33a.13.13,0,0,0,.17.09l9.46-3.13q.15-.06.21.12l1.18,3.55A.15.15,0,0,1,54.21,243.5Z"/><path d="M46.84,218.3l-23.36,3.36c-.11,0-.18,0-.19-.14l-.54-3.71a.15.15,0,0,1,.15-.19l19.7-2.84c.09,0,.12-.07.11-.16l-1.65-11.43c0-.11,0-.17.14-.18l3.37-.49c.11,0,.17,0,.19.14L47,218.11C47,218.22,47,218.28,46.84,218.3Z"/><path d="M20.42,198a.13.13,0,0,1-.08-.14l.06-4.46a.27.27,0,0,1,.17-.23L30.35,188a.17.17,0,0,0,0-.28l-9.61-5.45a.28.28,0,0,1-.16-.28l.06-4.42a.16.16,0,0,1,.09-.14c.05,0,.12,0,.2,0l13.53,8.38a.61.61,0,0,0,.24.07l9.59.14a.14.14,0,0,1,.16.17L44.4,190c0,.11-.06.16-.17.16l-9.6-.14a.46.46,0,0,0-.23.06L20.62,198A.23.23,0,0,1,20.42,198Z"/><path d="M45.82,168.13l-23.28-3.88c-.11,0-.16-.08-.14-.19l.62-3.7a.15.15,0,0,1,.19-.14l23.29,3.89a.14.14,0,0,1,.13.19L46,168A.15.15,0,0,1,45.82,168.13Z"/><path d="M48.56,153l-22.41-7.42c-.11,0-.14-.1-.11-.21l1.59-4.8a.26.26,0,0,1,.23-.16l19.92-3.21a.25.25,0,0,0,.17-.08.15.15,0,0,0,0-.14.14.14,0,0,0-.1-.1l-17-5.62a.16.16,0,0,1-.1-.23L32,127.5a.16.16,0,0,1,.22-.11l22.41,7.42a.15.15,0,0,1,.1.21l-1.59,4.81a.26.26,0,0,1-.24.18L33,143.2a.25.25,0,0,0-.17.08.13.13,0,0,0,0,.14.14.14,0,0,0,.1.1l17,5.62c.11,0,.14.1.11.21l-1.19,3.59C48.73,153,48.66,153.05,48.56,153Z"/><path d="M48.38,119.52a15.33,15.33,0,0,1-4.87-4.3,10,10,0,0,1-1.89-5.4A10.52,10.52,0,0,1,43.19,104a13,13,0,0,1,2.39-3.07,8.44,8.44,0,0,1,2.71-1.76,8.68,8.68,0,0,1,2.83-.59,10.5,10.5,0,0,1,3,.32.22.22,0,0,1,.14.09.17.17,0,0,1,0,.18l-2,3.46a.35.35,0,0,1-.41.22,5.09,5.09,0,0,0-3.08.69,6.54,6.54,0,0,0-2.27,2.34,5.66,5.66,0,0,0-.4,5.3,10.16,10.16,0,0,0,4.52,4.66,10.27,10.27,0,0,0,6.29,1.72,5.68,5.68,0,0,0,4.38-3q3.19-5.46-2-8.85l-.29-.17a.13.13,0,0,0-.18,0l-3.21,5.49q-.06.12-.21,0l-2.93-1.71c-.1-.06-.13-.13-.08-.2l5.08-8.69c.06-.1.14-.13.23-.07l11.65,6.81c.08,0,.09.12,0,.22l-1.56,2.67a.18.18,0,0,1-.2.08l-1.7-.59a.2.2,0,0,0-.17,0,.27.27,0,0,0,0,.22,9.76,9.76,0,0,1-1.18,6.56,10.53,10.53,0,0,1-4.29,4.22,9.83,9.83,0,0,1-5.62,1A15.29,15.29,0,0,1,48.38,119.52Z"/><path d="M86,86.86,70.25,69.31a.14.14,0,0,1,0-.23l7.4-6.66a6.79,6.79,0,0,1,5.18-1.76,7.43,7.43,0,0,1,6.66,9.72c0,.05,0,.08.09.1l9.72,4.35a.13.13,0,0,1,.1.13.19.19,0,0,1-.07.15l-2.91,2.62a.3.3,0,0,1-.19,0l-8.89-4q-.16-.06-.24,0l-4,3.57a.12.12,0,0,0,0,.18l6,6.61q.11.12,0,.24l-2.77,2.5A.15.15,0,0,1,86,86.86Zm-5.6-12.33a.15.15,0,0,0,.23,0l4.22-3.8a3.27,3.27,0,0,0,1-2.39,3.69,3.69,0,0,0-3.44-3.76,3.28,3.28,0,0,0-2.52.82l-4.15,3.73c-.07.06-.06.13,0,.2Z"/><path d="M104.49,64.26a16,16,0,0,1-4.28-4.9A16,16,0,0,1,98,53.27a9.56,9.56,0,0,1,.92-5.58,12,12,0,0,1,10.25-6.09,9.47,9.47,0,0,1,5.33,1.86,16,16,0,0,1,4.28,4.89,16.23,16.23,0,0,1,2.25,6.1,9.43,9.43,0,0,1-.91,5.57,12,12,0,0,1-10.25,6.1A9.57,9.57,0,0,1,104.49,64.26Zm-2.4-13.36a10.32,10.32,0,0,0,1.77,6.29,10.35,10.35,0,0,0,4.68,4.56,6.29,6.29,0,0,0,8.3-4.94,10.23,10.23,0,0,0-1.76-6.28A10.25,10.25,0,0,0,110.4,46a6.31,6.31,0,0,0-8.31,4.93Z"/><path d="M134.15,54.24l-7.69-22.32a.15.15,0,0,1,.1-.21L137.27,28a6.06,6.06,0,0,1,3.49-.2,6.42,6.42,0,0,1,3,1.68,7.7,7.7,0,0,1,1.9,3,5.52,5.52,0,0,1,.15,2.87,4.65,4.65,0,0,1-1.14,2.41.18.18,0,0,0-.08.2.18.18,0,0,0,.18.11,6.05,6.05,0,0,1,2.81,1.15,5,5,0,0,1,1.86,2.45,6.68,6.68,0,0,1-4.38,8.92l-10.7,3.69C134.25,54.38,134.18,54.35,134.15,54.24Zm-.7-14.56c0,.11.1.14.18.11L140,37.62a3.22,3.22,0,0,0,1.67-1.53,2.63,2.63,0,0,0,.23-2.23,3.72,3.72,0,0,0-1.45-1.94,2.4,2.4,0,0,0-2.24-.25l-6.56,2.25c-.08,0-.11.09-.08.19Zm3.34,9.69a.14.14,0,0,0,.21.11l6.3-2.16a3.51,3.51,0,0,0,2-1.76,3,3,0,0,0,.3-2.49,3.14,3.14,0,0,0-1.67-1.81,3.09,3.09,0,0,0-2.5-.19l-6.56,2.26c-.09,0-.11.09-.07.2Z"/><path d="M161.15,40.36a16.06,16.06,0,0,1-2-6.19,16,16,0,0,1,.36-6.49,9.53,9.53,0,0,1,3.06-4.75,12,12,0,0,1,11.82-1.51,9.5,9.5,0,0,1,4.16,3.83,16.06,16.06,0,0,1,2,6.19,16,16,0,0,1-.36,6.49,9.53,9.53,0,0,1-3.06,4.75,12,12,0,0,1-11.82,1.51A9.49,9.49,0,0,1,161.15,40.36Zm3.12-13.2a10.36,10.36,0,0,0-.88,6.48,10.33,10.33,0,0,0,2.48,6,6.3,6.3,0,0,0,9.58-1.23,10.26,10.26,0,0,0,.88-6.47,10.3,10.3,0,0,0-2.48-6,6.29,6.29,0,0,0-9.58,1.22Z"/><path d="M190.88,22.79l.2-3.39c0-.12.06-.17.17-.16l17,1c.12,0,.17.06.16.17l-.19,3.4a.16.16,0,0,1-.18.16l-6.28-.36c-.11,0-.17.05-.18.17l-1.13,19.82a.14.14,0,0,1-.17.16l-3.75-.21a.15.15,0,0,1-.15-.18l1.13-19.82c0-.12,0-.19-.16-.19L191,23A.16.16,0,0,1,190.88,22.79Z"/><path d="M216.78,38.8a.16.16,0,0,1,.22-.14l3.79.9a.16.16,0,0,1,.12.22,2.67,2.67,0,0,0,.93,2.48A6.48,6.48,0,0,0,225.12,44a5.8,5.8,0,0,0,3.67-.21,3.1,3.1,0,0,0,2-2.16,2.6,2.6,0,0,0-.7-2.36,7.26,7.26,0,0,0-3.34-1.95l-2.88-1.21a9.89,9.89,0,0,1-2.29-1.33,6.43,6.43,0,0,1-1.58-1.7,5.19,5.19,0,0,1-.71-2.08,6.79,6.79,0,0,1,.17-2.54,6.1,6.1,0,0,1,2.09-3.41,7.55,7.55,0,0,1,3.63-1.66,10.06,10.06,0,0,1,4.15.15,11.3,11.3,0,0,1,3.07,1.21,9.46,9.46,0,0,1,2.38,1.92,6.24,6.24,0,0,1,1.37,2.56,6.05,6.05,0,0,1,0,3c0,.12-.09.17-.17.15l-3.85-.92c-.11,0-.14-.12-.1-.28a2.7,2.7,0,0,0-.68-2.33,5,5,0,0,0-2.9-1.7,4.67,4.67,0,0,0-3.12.27,2.93,2.93,0,0,0-1.76,2,1.8,1.8,0,0,0,.06,1.08,2.23,2.23,0,0,0,.55.88,4.8,4.8,0,0,0,1,.74,9.72,9.72,0,0,0,1.2.61l1.34.54,1.18.47,1.24.5a7.94,7.94,0,0,1,1.27.62c.34.19.72.46,1.16.77a5.64,5.64,0,0,1,1.06,1,7.28,7.28,0,0,1,.79,1.14,4.61,4.61,0,0,1,.56,1.37,6.52,6.52,0,0,1,.16,1.6,8.17,8.17,0,0,1-.24,1.9,6.51,6.51,0,0,1-3.63,4.64,10.46,10.46,0,0,1-7,.37,13.81,13.81,0,0,1-3.36-1.23,9.27,9.27,0,0,1-2.34-1.67,7,7,0,0,1-1.35-1.95,6.21,6.21,0,0,1-.57-2A5.91,5.91,0,0,1,216.78,38.8Z"/><path d="M260.56,53.1a16.72,16.72,0,0,1,2-4.58,17.13,17.13,0,0,1,3.14-4,11.91,11.91,0,0,1,3.72-2.39,8.74,8.74,0,0,1,4.24-.53,11.08,11.08,0,0,1,4.52,1.59,12.27,12.27,0,0,1,2.35,1.8,9.49,9.49,0,0,1,1.58,2,11.05,11.05,0,0,1,.91,2.06,9.11,9.11,0,0,1,.4,2,10.61,10.61,0,0,1,0,1.79,7.66,7.66,0,0,1-.28,1.48,4.31,4.31,0,0,1-.44,1,.15.15,0,0,1-.23.07l-3.36-2a.2.2,0,0,1-.09-.25q1-4.53-2.73-6.76a5.47,5.47,0,0,0-5.31-.35,10.8,10.8,0,0,0-4.74,4.59,9.86,9.86,0,0,0-1.68,6.13,5.67,5.67,0,0,0,2.95,4.34,6.19,6.19,0,0,0,2.14.81,5.3,5.3,0,0,0,1.84.06,5.88,5.88,0,0,0,1.54-.5,7,7,0,0,0,1.1-.63,8.21,8.21,0,0,0,.66-.54.2.2,0,0,1,.26,0l3.34,2a.16.16,0,0,1,.05.24,3.89,3.89,0,0,1-.6.74,7.48,7.48,0,0,1-1.1.91,11.14,11.14,0,0,1-1.52.92,8.38,8.38,0,0,1-1.93.67A9.91,9.91,0,0,1,271,66a9.17,9.17,0,0,1-2.59-.42A12.82,12.82,0,0,1,262,61.21a8.58,8.58,0,0,1-1.63-3.83A11.19,11.19,0,0,1,260.56,53.1Z"/><path d="M282,75,297.71,57.3a.15.15,0,0,1,.24,0l2.8,2.49a.14.14,0,0,1,0,.23L287.55,74.9c-.06.06-.05.13,0,.19l8.63,7.67a.14.14,0,0,1,0,.23L294,85.53a.14.14,0,0,1-.23,0L282.05,75.19A.15.15,0,0,1,282,75Z"/><path d="M306.17,86.56,318.31,77c.08-.06.16,0,.24,0l2.32,2.92a.15.15,0,0,1,0,.24l-12.13,9.6A4.32,4.32,0,0,0,307,92.82a4.59,4.59,0,0,0,4,5.09,4.41,4.41,0,0,0,3.37-1l12.13-9.61a.15.15,0,0,1,.23,0l2.33,2.94a.15.15,0,0,1,0,.24l-12.13,9.6a8.56,8.56,0,0,1-8.54,1.28A8.88,8.88,0,0,1,303,94.59a8.54,8.54,0,0,1,3.18-8Z"/><path d="M316.47,114.11l21-10.86a.14.14,0,0,1,.22.07l5.22,10.05a6.11,6.11,0,0,1,.69,3.42,6.34,6.34,0,0,1-1.22,3.22,7.72,7.72,0,0,1-2.73,2.32,5.42,5.42,0,0,1-2.81.57,4.64,4.64,0,0,1-2.55-.78c-.08-.06-.14-.08-.21,0a.17.17,0,0,0-.09.19,5.94,5.94,0,0,1-.73,3,5,5,0,0,1-2.15,2.19,6.81,6.81,0,0,1-5.39.6,6.91,6.91,0,0,1-4.07-3.62l-5.21-10A.15.15,0,0,1,316.47,114.11Zm5.21,1.9c-.11.06-.14.13-.08.23l3.06,5.91a3.47,3.47,0,0,0,2,1.71,3,3,0,0,0,2.5-.07,3.17,3.17,0,0,0,1.56-1.91,3.21,3.21,0,0,0-.18-2.51l-3.2-6.16c0-.08-.11-.09-.21,0Zm9.1-4.71c-.1,0-.13.11-.09.19l3.08,5.94a3.26,3.26,0,0,0,1.76,1.44,2.63,2.63,0,0,0,2.23-.11,3.68,3.68,0,0,0,1.71-1.71,2.42,2.42,0,0,0-.08-2.26l-3.19-6.16c0-.08-.1-.09-.19,0Z"/><path d="M333.07,154.33l3.08-.58a.61.61,0,0,1,.46.09l10.58,7.29q2.49,1.81,4.36,1.44a4.13,4.13,0,0,0,1.19-.46,4.41,4.41,0,0,0,1.05-.85,3.09,3.09,0,0,0,.69-1.32,3.86,3.86,0,0,0,0-1.73,3.43,3.43,0,0,0-1.63-2.42,3.68,3.68,0,0,0-2.72-.56c-.12,0-.2,0-.21-.13l-.68-3.63c0-.1,0-.17.17-.2a7.18,7.18,0,0,1,5.63,1.18,8.54,8.54,0,0,1,2.08,11.07,7.22,7.22,0,0,1-4.85,3.06,8.27,8.27,0,0,1-2.37.11,7.35,7.35,0,0,1-2.11-.55,14.87,14.87,0,0,1-1.55-.77,14.24,14.24,0,0,1-1.26-.86l-7.07-5.26a.16.16,0,0,0-.2,0,.15.15,0,0,0-.1.17l1.75,9.36c0,.12,0,.19-.13.21l-3.35.62c-.11,0-.17,0-.19-.15l-2.79-14.93C332.91,154.41,333,154.35,333.07,154.33Z"/><path d="M345,179.7a24.76,24.76,0,0,1,3.92-.29,25.1,25.1,0,0,1,3.93.27,14.12,14.12,0,0,1,3.36.93,8.53,8.53,0,0,1,2.67,1.69,7.1,7.1,0,0,1,1.73,2.58,9.47,9.47,0,0,1,.64,3.57,9.28,9.28,0,0,1-.62,3.57,7.06,7.06,0,0,1-1.71,2.59,8.92,8.92,0,0,1-2.65,1.69,14.16,14.16,0,0,1-3.36,1,28.15,28.15,0,0,1-7.85,0,14.56,14.56,0,0,1-3.37-.94,8.94,8.94,0,0,1-2.67-1.68,7.1,7.1,0,0,1-1.73-2.57,10.43,10.43,0,0,1,0-7.14,7.36,7.36,0,0,1,1.71-2.6,9,9,0,0,1,2.66-1.7A15.17,15.17,0,0,1,345,179.7Zm7.39,4.21a21.19,21.19,0,0,0-3.46-.25,19.91,19.91,0,0,0-3.45.28,10.23,10.23,0,0,0-2.69.83,4.19,4.19,0,0,0-1.79,1.51,3.94,3.94,0,0,0-.61,2.24q0,4.81,8.58,4.78t8.55-4.84a4,4,0,0,0-.63-2.24,4.24,4.24,0,0,0-1.8-1.49A10.58,10.58,0,0,0,352.35,183.91Z"/><path d="M352.6,209.9l3,.49a.14.14,0,0,1,.13.19l-.67,4.1a1.73,1.73,0,0,0,.33,1.35,1.57,1.57,0,0,0,1.14.7l1.95.32a.15.15,0,0,1,.14.19L358,221a.15.15,0,0,1-.19.13l-23.3-3.8a.14.14,0,0,1-.13-.19l.6-3.7c0-.11.08-.16.19-.14l15.3,2.5a1,1,0,0,0,.72-.14.9.9,0,0,0,.37-.61l.81-5C352.41,209.92,352.48,209.88,352.6,209.9Z"/><path d="M347.17,232.71a8.47,8.47,0,0,1,5.1,4.11,9.28,9.28,0,0,1-3.92,11.72,8.48,8.48,0,0,1-6.55.19,10.29,10.29,0,0,1-4.29-2.8l-8.33-8.74c-.07-.07-.1-.14-.08-.2l1.3-3.87a.15.15,0,0,1,.12-.12.16.16,0,0,1,.16,0l5.54,5.76a.2.2,0,0,0,.2.06.19.19,0,0,0,.13-.16,5.07,5.07,0,0,1,.27-1.27,7.37,7.37,0,0,1,4-4.51A8.31,8.31,0,0,1,347.17,232.71Zm1.53,6.13a5.35,5.35,0,0,0-2.88-2.1,5.23,5.23,0,0,0-3.55-.05,4.26,4.26,0,0,0-2,5.92,5.9,5.9,0,0,0,6.43,2.15,3.71,3.71,0,0,0,2.29-2.51A3.8,3.8,0,0,0,348.7,238.84Z"/><path d="M102.17,331.86a.16.16,0,0,1,.25-.08l3.42,1.87q.15.08.06.24a2.68,2.68,0,0,0,.25,2.63,6.42,6.42,0,0,0,2.71,2.56,5.71,5.71,0,0,0,3.59.77,3.1,3.1,0,0,0,2.46-1.58,2.59,2.59,0,0,0,0-2.46,7.48,7.48,0,0,0-2.72-2.76l-2.47-1.92a10,10,0,0,1-1.86-1.88,6.26,6.26,0,0,1-1.08-2.05,5.3,5.3,0,0,1-.15-2.19,7.11,7.11,0,0,1,.83-2.42,6.17,6.17,0,0,1,2.91-2.74,7.64,7.64,0,0,1,3.94-.66,10.15,10.15,0,0,1,4,1.24,11.33,11.33,0,0,1,2.64,2,9.73,9.73,0,0,1,1.8,2.48,6.15,6.15,0,0,1,.65,2.83,6.07,6.07,0,0,1-.77,2.92c-.06.11-.12.14-.2.1l-3.47-1.89q-.15-.07,0-.3a2.68,2.68,0,0,0,0-2.42,5,5,0,0,0-2.36-2.4,4.66,4.66,0,0,0-3.08-.56,2.92,2.92,0,0,0-2.22,1.47,1.81,1.81,0,0,0-.23,1.06,2.48,2.48,0,0,0,.3,1,5,5,0,0,0,.77,1,8.92,8.92,0,0,0,1,.9l1.16.87,1,.76,1.06.81a9.34,9.34,0,0,1,1.08.93c.27.28.57.63.91,1.05a6.07,6.07,0,0,1,.78,1.2,9,9,0,0,1,.46,1.31,4.61,4.61,0,0,1,.18,1.46,6.56,6.56,0,0,1-.26,1.6,8.62,8.62,0,0,1-.73,1.77,6.5,6.5,0,0,1-4.72,3.52,10.43,10.43,0,0,1-6.85-1.46,14.9,14.9,0,0,1-2.93-2.07,9.21,9.21,0,0,1-1.81-2.22,7.22,7.22,0,0,1-.8-2.23,5.89,5.89,0,0,1,.64-4Z"/><path d="M133.71,329.41a.15.15,0,0,1,.06-.15.14.14,0,0,1,.16,0l4,1.15a.18.18,0,0,1,.15.21L136,350.38a.15.15,0,0,0,.12.18.17.17,0,0,0,.2-.09l9.22-17.73a.21.21,0,0,1,.24-.11l6.3,1.82a.2.2,0,0,1,.15.22l-1.61,19.92a.16.16,0,0,0,.13.19.14.14,0,0,0,.2-.09l8.76-17.87a.18.18,0,0,1,.24-.1l4,1.15a.15.15,0,0,1,.12.12.22.22,0,0,1,0,.16l-11,21.31a.2.2,0,0,1-.25.1l-6.27-1.81a.18.18,0,0,1-.14-.21l1.61-20a.2.2,0,0,0-.37-.11l-9.26,17.76c-.06.1-.13.13-.2.11l-6.29-1.81a.2.2,0,0,1-.16-.22Z"/><path d="M171.35,362.42l1.44-23.57a.15.15,0,0,1,.18-.15l16.58,1c.13,0,.18.07.18.18l-.21,3.4c0,.11-.07.16-.19.15l-12.5-.76c-.12,0-.18.05-.19.17l-.36,5.85c0,.11.05.17.17.18l10.81.66c.11,0,.16.06.15.17l-.2,3.38c0,.13-.07.18-.18.18l-10.81-.67c-.12,0-.18,0-.19.16l-.38,6.16a.17.17,0,0,0,.18.2l12.49.76c.12,0,.18.07.17.18l-.21,3.4c0,.11-.07.16-.19.15l-16.59-1C171.39,362.59,171.34,362.53,171.35,362.42Z"/><path d="M202.67,363.17l-3-23.42a.14.14,0,0,1,.14-.18l8.66-1.11a10.84,10.84,0,0,1,6.1.83,9.43,9.43,0,0,1,4.12,3.79,16.21,16.21,0,0,1,2,6.13q.71,5.49-1.61,8.91c-1.54,2.28-4,3.65-7.53,4.09l-8.66,1.11A.15.15,0,0,1,202.67,363.17Zm3.57-4.24c0,.12.08.18.19.16l4.61-.59a5.75,5.75,0,0,0,4.46-2.66,9.07,9.07,0,0,0,.93-6.09,10.13,10.13,0,0,0-2.47-5.91,5.6,5.6,0,0,0-5-1.67l-4.65.59c-.09,0-.12.07-.11.17Z"/><path d="M235.81,357.54l-7.32-22.44a.15.15,0,0,1,.11-.21l15.8-5.15c.12,0,.19,0,.22.1l1.06,3.24q0,.15-.12.21l-11.9,3.88a.16.16,0,0,0-.12.23l1.82,5.57c0,.11.11.14.22.1l10.29-3.35a.14.14,0,0,1,.21.1l1,3.22c0,.12,0,.2-.1.23l-10.29,3.35c-.12,0-.16.11-.12.22l1.91,5.87a.16.16,0,0,0,.23.12l11.9-3.88c.12,0,.19,0,.23.1l1.05,3.24q.06.15-.12.21L236,357.65A.15.15,0,0,1,235.81,357.54Z"/><path d="M265.38,346.66,254,326a.15.15,0,0,1,.07-.23l4.44-2.43a.25.25,0,0,1,.27,0l16.76,11.23a.25.25,0,0,0,.19.06.14.14,0,0,0,.11-.09.12.12,0,0,0,0-.13l-8.59-15.7a.15.15,0,0,1,.08-.23l3.28-1.8a.14.14,0,0,1,.22.07l11.34,20.71a.14.14,0,0,1-.07.22l-4.44,2.43a.26.26,0,0,1-.3,0l-16.72-11.23a.25.25,0,0,0-.19-.06.14.14,0,0,0-.11.08.12.12,0,0,0,0,.14L269,344.7a.15.15,0,0,1-.07.23l-3.32,1.82C265.5,346.79,265.43,346.76,265.38,346.66Z"/><path d="M190.68,326.27c-74.76,0-135.59-60.82-135.59-135.59S115.92,55.09,190.68,55.09s135.59,60.83,135.59,135.59S265.44,326.27,190.68,326.27Zm0-266.78c-72.34,0-131.19,58.85-131.19,131.19s58.85,131.19,131.19,131.19S321.87,263,321.87,190.68,263,59.49,190.68,59.49Z"/><path d="M258,218.18h-1.27V167.73a66,66,0,0,0-132.08,0v50.45h-1.27a2.21,2.21,0,0,0-2.22,2.22V238a2.22,2.22,0,0,0,2.22,2.23h39.08v46.05a2.22,2.22,0,0,0,4.44,0V240.2h47.58v35.52a2.22,2.22,0,1,0,4.44,0V240.2H258a2.22,2.22,0,0,0,2.22-2.23V220.4A2.21,2.21,0,0,0,258,218.18Zm-2.22,17.57H125.59V222.62h1.27a2.22,2.22,0,0,0,2.22-2.22V167.73a61.6,61.6,0,0,1,123.2,0V220.4a2.22,2.22,0,0,0,2.22,2.22h1.27Z"/><path d="M217.8,120.67a2.22,2.22,0,1,0-2.22,3.84,50.18,50.18,0,0,1,18.29,18.28,2.23,2.23,0,0,0,1.93,1.1,2.16,2.16,0,0,0,1.11-.3,2.21,2.21,0,0,0,.8-3A54.64,54.64,0,0,0,217.8,120.67Z"/><path d="M198.38,189.12a2.22,2.22,0,0,0-3,.81,5.37,5.37,0,0,1-9.32,0,2.22,2.22,0,0,0-3.85,2.22,9.82,9.82,0,0,0,17,0A2.22,2.22,0,0,0,198.38,189.12Z"/><path d="M164.67,172.84a3.22,3.22,0,1,0,3.22,3.21A3.21,3.21,0,0,0,164.67,172.84Z"/><path d="M216.69,172.84a3.22,3.22,0,1,0,3.21,3.21A3.22,3.22,0,0,0,216.69,172.84Z"/><circle cx="68.24" cy="291.98" r="3.51"/><circle cx="316.18" cy="291.98" r="3.51"/></g></g></svg>